<svg width="87" height="70" viewBox="0 0 87 70" fill="none" xmlns="http://www.w3.org/2000/svg">
<path d="M14.5838 0.715515C6.5294 0.715515 0 5.29836 0 10.9516V43.9536C0 47.1393 2.11313 50.1433 5.71651 52.0802L34.5999 67.6061C39.8284 70.4166 47.0918 70.4189 52.3239 67.6117L81.2729 52.0801C84.8825 50.1435 87 47.1367 87 43.9478V10.9516C87 5.29837 80.4706 0.715515 72.4162 0.715515H14.5838Z" fill="black"/>
<path d="M33.0339 39.7482V33.756H27.0105V36.7364H25.0235V26.739H27.0105V29.7507H33.0339V23.7273C33.0339 22.0943 31.6552 20.7155 30.0222 20.7155H22.0117C20.3768 20.7155 19 22.0943 19 23.7273V39.7482C19 41.3831 20.3768 42.7599 22.0117 42.7599H30.0222C31.6552 42.7599 33.0339 41.3831 33.0339 39.7482Z" fill="#FFFFFE"/>
<path d="M43.6712 30.7442H41.6842V26.739H43.6712V30.7442ZM49.6947 33.756V23.7273C49.6947 22.0943 48.316 20.7155 46.683 20.7155H35.6608V42.7599H41.6842V36.7364H46.683C48.316 36.7364 49.6947 35.3909 49.6947 33.756Z" fill="#FFFFFE"/>
<path d="M66.3555 39.7482V20.7155H60.332V36.7364H58.345V20.7155H52.3215V39.7482C52.3215 41.3831 53.6983 42.7599 55.3333 42.7599H63.3437C64.9767 42.7599 66.3555 41.3831 66.3555 39.7482Z" fill="#FFFFFE"/>
</svg>
